<?xml version="1.0" encoding="utf-8"?>
<svg xmlns="http://www.w3.org/2000/svg" xmlns:xlink="http://www.w3.org/1999/xlink" xml:space="preserve" width="870" height="1087.5" viewBox="0 0 870 1087.5"><rect width="805.475" height="805.475" fill="#ffffff" x="36.25" y="253.75"/><g transform="scale(36.25)" fill="#000000"><path d="M22.7,6L1.3,6C0.6,6,0,6.6,0,7.3l0,21.3C0,29.4,0.6,30,1.3,30l21.3,0c0.7,0,1.3-0.6,1.3-1.3l0-21.3 C24,6.6,23.4,6,22.7,6z M23,28c0,0.6-0.5,1-1,1L2,29c-0.6,0-1-0.5-1-1V8c0-0.6,0.5-1,1-1l20,0c0.6,0,1,0.5,1,1V28z"/><path d="M23,0H1C0.4,0,0,0.4,0,1v3c0,0.5,0.4,1,1,1h10l1,1l1-1h10c0.5,0,1-0.4,1-1V1C24,0.4,23.6,0,23,0z"/></g><g transform="translate(0,217.5)" fill="#000000">
<g transform="translate(327,87) scale(4.12)"><rect width="6" height="6"/></g>
<g transform="translate(351,87) scale(4.12)"><rect width="6" height="6"/></g>
<g transform="translate(375,87) scale(4.12)"><rect width="6" height="6"/></g>
<g transform="translate(495,87) scale(4.12)"><rect width="6" height="6"/></g>
<g transform="translate(519,87) scale(4.12)"><rect width="6" height="6"/></g>
<g transform="translate(543,87) scale(4.12)"><rect width="6" height="6"/></g>
<g transform="translate(567,87) scale(4.12)"><rect width="6" height="6"/></g>
<g transform="translate(327,111) scale(4.12)"><rect width="6" height="6"/></g>
<g transform="translate(351,111) scale(4.12)"><rect width="6" height="6"/></g>
<g transform="translate(375,111) scale(4.12)"><rect width="6" height="6"/></g>
<g transform="translate(447,111) scale(4.12)"><rect width="6" height="6"/></g>
<g transform="translate(495,111) scale(4.12)"><rect width="6" height="6"/></g>
<g transform="translate(567,111) scale(4.12)"><rect width="6" height="6"/></g>
<g transform="translate(279,135) scale(4.12)"><rect width="6" height="6"/></g>
<g transform="translate(303,135) scale(4.12)"><rect width="6" height="6"/></g>
<g transform="translate(447,135) scale(4.12)"><rect width="6" height="6"/></g>
<g transform="translate(471,135) scale(4.12)"><rect width="6" height="6"/></g>
<g transform="translate(279,159) scale(4.12)"><rect width="6" height="6"/></g>
<g transform="translate(303,159) scale(4.12)"><rect width="6" height="6"/></g>
<g transform="translate(399,159) scale(4.12)"><rect width="6" height="6"/></g>
<g transform="translate(447,159) scale(4.12)"><rect width="6" height="6"/></g>
<g transform="translate(471,159) scale(4.12)"><rect width="6" height="6"/></g>
<g transform="translate(495,159) scale(4.12)"><rect width="6" height="6"/></g>
<g transform="translate(519,159) scale(4.12)"><rect width="6" height="6"/></g>
<g transform="translate(543,159) scale(4.12)"><rect width="6" height="6"/></g>
<g transform="translate(279,183) scale(4.12)"><rect width="6" height="6"/></g>
<g transform="translate(327,183) scale(4.12)"><rect width="6" height="6"/></g>
<g transform="translate(351,183) scale(4.12)"><rect width="6" height="6"/></g>
<g transform="translate(375,183) scale(4.12)"><rect width="6" height="6"/></g>
<g transform="translate(423,183) scale(4.12)"><rect width="6" height="6"/></g>
<g transform="translate(495,183) scale(4.12)"><rect width="6" height="6"/></g>
<g transform="translate(519,183) scale(4.12)"><rect width="6" height="6"/></g>
<g transform="translate(543,183) scale(4.12)"><rect width="6" height="6"/></g>
<g transform="translate(567,183) scale(4.12)"><rect width="6" height="6"/></g>
<g transform="translate(279,207) scale(4.12)"><rect width="6" height="6"/></g>
<g transform="translate(303,207) scale(4.12)"><rect width="6" height="6"/></g>
<g transform="translate(327,207) scale(4.12)"><rect width="6" height="6"/></g>
<g transform="translate(375,207) scale(4.12)"><rect width="6" height="6"/></g>
<g transform="translate(399,207) scale(4.12)"><rect width="6" height="6"/></g>
<g transform="translate(423,207) scale(4.12)"><rect width="6" height="6"/></g>
<g transform="translate(447,207) scale(4.12)"><rect width="6" height="6"/></g>
<g transform="translate(495,207) scale(4.12)"><rect width="6" height="6"/></g>
<g transform="translate(279,231) scale(4.12)"><rect width="6" height="6"/></g>
<g transform="translate(327,231) scale(4.12)"><rect width="6" height="6"/></g>
<g transform="translate(375,231) scale(4.12)"><rect width="6" height="6"/></g>
<g transform="translate(423,231) scale(4.12)"><rect width="6" height="6"/></g>
<g transform="translate(471,231) scale(4.12)"><rect width="6" height="6"/></g>
<g transform="translate(519,231) scale(4.12)"><rect width="6" height="6"/></g>
<g transform="translate(567,231) scale(4.12)"><rect width="6" height="6"/></g>
<g transform="translate(279,255) scale(4.12)"><rect width="6" height="6"/></g>
<g transform="translate(303,255) scale(4.12)"><rect width="6" height="6"/></g>
<g transform="translate(351,255) scale(4.12)"><rect width="6" height="6"/></g>
<g transform="translate(399,255) scale(4.12)"><rect width="6" height="6"/></g>
<g transform="translate(423,255) scale(4.12)"><rect width="6" height="6"/></g>
<g transform="translate(543,255) scale(4.12)"><rect width="6" height="6"/></g>
<g transform="translate(567,255) scale(4.12)"><rect width="6" height="6"/></g>
<g transform="translate(87,279) scale(4.12)"><rect width="6" height="6"/></g>
<g transform="translate(135,279) scale(4.12)"><rect width="6" height="6"/></g>
<g transform="translate(159,279) scale(4.12)"><rect width="6" height="6"/></g>
<g transform="translate(183,279) scale(4.12)"><rect width="6" height="6"/></g>
<g transform="translate(207,279) scale(4.12)"><rect width="6" height="6"/></g>
<g transform="translate(231,279) scale(4.12)"><rect width="6" height="6"/></g>
<g transform="translate(327,279) scale(4.12)"><rect width="6" height="6"/></g>
<g transform="translate(351,279) scale(4.12)"><rect width="6" height="6"/></g>
<g transform="translate(375,279) scale(4.12)"><rect width="6" height="6"/></g>
<g transform="translate(447,279) scale(4.12)"><rect width="6" height="6"/></g>
<g transform="translate(471,279) scale(4.12)"><rect width="6" height="6"/></g>
<g transform="translate(495,279) scale(4.12)"><rect width="6" height="6"/></g>
<g transform="translate(543,279) scale(4.12)"><rect width="6" height="6"/></g>
<g transform="translate(615,279) scale(4.12)"><rect width="6" height="6"/></g>
<g transform="translate(639,279) scale(4.12)"><rect width="6" height="6"/></g>
<g transform="translate(663,279) scale(4.12)"><rect width="6" height="6"/></g>
<g transform="translate(687,279) scale(4.12)"><rect width="6" height="6"/></g>
<g transform="translate(711,279) scale(4.12)"><rect width="6" height="6"/></g>
<g transform="translate(135,303) scale(4.12)"><rect width="6" height="6"/></g>
<g transform="translate(159,303) scale(4.12)"><rect width="6" height="6"/></g>
<g transform="translate(183,303) scale(4.12)"><rect width="6" height="6"/></g>
<g transform="translate(255,303) scale(4.12)"><rect width="6" height="6"/></g>
<g transform="translate(279,303) scale(4.12)"><rect width="6" height="6"/></g>
<g transform="translate(327,303) scale(4.12)"><rect width="6" height="6"/></g>
<g transform="translate(351,303) scale(4.12)"><rect width="6" height="6"/></g>
<g transform="translate(399,303) scale(4.12)"><rect width="6" height="6"/></g>
<g transform="translate(543,303) scale(4.12)"><rect width="6" height="6"/></g>
<g transform="translate(591,303) scale(4.12)"><rect width="6" height="6"/></g>
<g transform="translate(615,303) scale(4.12)"><rect width="6" height="6"/></g>
<g transform="translate(639,303) scale(4.12)"><rect width="6" height="6"/></g>
<g transform="translate(663,303) scale(4.12)"><rect width="6" height="6"/></g>
<g transform="translate(759,303) scale(4.12)"><rect width="6" height="6"/></g>
<g transform="translate(111,327) scale(4.12)"><rect width="6" height="6"/></g>
<g transform="translate(135,327) scale(4.12)"><rect width="6" height="6"/></g>
<g transform="translate(159,327) scale(4.12)"><rect width="6" height="6"/></g>
<g transform="translate(183,327) scale(4.12)"><rect width="6" height="6"/></g>
<g transform="translate(207,327) scale(4.12)"><rect width="6" height="6"/></g>
<g transform="translate(231,327) scale(4.12)"><rect width="6" height="6"/></g>
<g transform="translate(255,327) scale(4.12)"><rect width="6" height="6"/></g>
<g transform="translate(279,327) scale(4.12)"><rect width="6" height="6"/></g>
<g transform="translate(303,327) scale(4.12)"><rect width="6" height="6"/></g>
<g transform="translate(399,327) scale(4.12)"><rect width="6" height="6"/></g>
<g transform="translate(423,327) scale(4.12)"><rect width="6" height="6"/></g>
<g transform="translate(447,327) scale(4.12)"><rect width="6" height="6"/></g>
<g transform="translate(495,327) scale(4.12)"><rect width="6" height="6"/></g>
<g transform="translate(519,327) scale(4.12)"><rect width="6" height="6"/></g>
<g transform="translate(567,327) scale(4.12)"><rect width="6" height="6"/></g>
<g transform="translate(87,351) scale(4.12)"><rect width="6" height="6"/></g>
<g transform="translate(135,351) scale(4.12)"><rect width="6" height="6"/></g>
<g transform="translate(159,351) scale(4.12)"><rect width="6" height="6"/></g>
<g transform="translate(183,351) scale(4.12)"><rect width="6" height="6"/></g>
<g transform="translate(207,351) scale(4.12)"><rect width="6" height="6"/></g>
<g transform="translate(255,351) scale(4.12)"><rect width="6" height="6"/></g>
<g transform="translate(303,351) scale(4.12)"><rect width="6" height="6"/></g>
<g transform="translate(327,351) scale(4.12)"><rect width="6" height="6"/></g>
<g transform="translate(351,351) scale(4.12)"><rect width="6" height="6"/></g>
<g transform="translate(399,351) scale(4.12)"><rect width="6" height="6"/></g>
<g transform="translate(423,351) scale(4.12)"><rect width="6" height="6"/></g>
<g transform="translate(471,351) scale(4.12)"><rect width="6" height="6"/></g>
<g transform="translate(519,351) scale(4.12)"><rect width="6" height="6"/></g>
<g transform="translate(543,351) scale(4.12)"><rect width="6" height="6"/></g>
<g transform="translate(591,351) scale(4.12)"><rect width="6" height="6"/></g>
<g transform="translate(615,351) scale(4.12)"><rect width="6" height="6"/></g>
<g transform="translate(639,351) scale(4.12)"><rect width="6" height="6"/></g>
<g transform="translate(687,351) scale(4.12)"><rect width="6" height="6"/></g>
<g transform="translate(735,351) scale(4.12)"><rect width="6" height="6"/></g>
<g transform="translate(135,375) scale(4.12)"><rect width="6" height="6"/></g>
<g transform="translate(231,375) scale(4.12)"><rect width="6" height="6"/></g>
<g transform="translate(255,375) scale(4.12)"><rect width="6" height="6"/></g>
<g transform="translate(351,375) scale(4.12)"><rect width="6" height="6"/></g>
<g transform="translate(399,375) scale(4.12)"><rect width="6" height="6"/></g>
<g transform="translate(423,375) scale(4.12)"><rect width="6" height="6"/></g>
<g transform="translate(447,375) scale(4.12)"><rect width="6" height="6"/></g>
<g transform="translate(471,375) scale(4.12)"><rect width="6" height="6"/></g>
<g transform="translate(495,375) scale(4.12)"><rect width="6" height="6"/></g>
<g transform="translate(543,375) scale(4.12)"><rect width="6" height="6"/></g>
<g transform="translate(687,375) scale(4.12)"><rect width="6" height="6"/></g>
<g transform="translate(711,375) scale(4.12)"><rect width="6" height="6"/></g>
<g transform="translate(87,399) scale(4.12)"><rect width="6" height="6"/></g>
<g transform="translate(111,399) scale(4.12)"><rect width="6" height="6"/></g>
<g transform="translate(135,399) scale(4.12)"><rect width="6" height="6"/></g>
<g transform="translate(303,399) scale(4.12)"><rect width="6" height="6"/></g>
<g transform="translate(327,399) scale(4.12)"><rect width="6" height="6"/></g>
<g transform="translate(351,399) scale(4.12)"><rect width="6" height="6"/></g>
<g transform="translate(423,399) scale(4.12)"><rect width="6" height="6"/></g>
<g transform="translate(471,399) scale(4.12)"><rect width="6" height="6"/></g>
<g transform="translate(495,399) scale(4.12)"><rect width="6" height="6"/></g>
<g transform="translate(519,399) scale(4.12)"><rect width="6" height="6"/></g>
<g transform="translate(543,399) scale(4.12)"><rect width="6" height="6"/></g>
<g transform="translate(567,399) scale(4.12)"><rect width="6" height="6"/></g>
<g transform="translate(591,399) scale(4.12)"><rect width="6" height="6"/></g>
<g transform="translate(615,399) scale(4.12)"><rect width="6" height="6"/></g>
<g transform="translate(639,399) scale(4.12)"><rect width="6" height="6"/></g>
<g transform="translate(663,399) scale(4.12)"><rect width="6" height="6"/></g>
<g transform="translate(759,399) scale(4.12)"><rect width="6" height="6"/></g>
<g transform="translate(87,423) scale(4.12)"><rect width="6" height="6"/></g>
<g transform="translate(111,423) scale(4.12)"><rect width="6" height="6"/></g>
<g transform="translate(231,423) scale(4.12)"><rect width="6" height="6"/></g>
<g transform="translate(327,423) scale(4.12)"><rect width="6" height="6"/></g>
<g transform="translate(399,423) scale(4.12)"><rect width="6" height="6"/></g>
<g transform="translate(447,423) scale(4.12)"><rect width="6" height="6"/></g>
<g transform="translate(471,423) scale(4.12)"><rect width="6" height="6"/></g>
<g transform="translate(519,423) scale(4.12)"><rect width="6" height="6"/></g>
<g transform="translate(567,423) scale(4.12)"><rect width="6" height="6"/></g>
<g transform="translate(639,423) scale(4.12)"><rect width="6" height="6"/></g>
<g transform="translate(663,423) scale(4.12)"><rect width="6" height="6"/></g>
<g transform="translate(687,423) scale(4.12)"><rect width="6" height="6"/></g>
<g transform="translate(711,423) scale(4.12)"><rect width="6" height="6"/></g>
<g transform="translate(87,447) scale(4.12)"><rect width="6" height="6"/></g>
<g transform="translate(111,447) scale(4.12)"><rect width="6" height="6"/></g>
<g transform="translate(183,447) scale(4.12)"><rect width="6" height="6"/></g>
<g transform="translate(255,447) scale(4.12)"><rect width="6" height="6"/></g>
<g transform="translate(447,447) scale(4.12)"><rect width="6" height="6"/></g>
<g transform="translate(471,447) scale(4.12)"><rect width="6" height="6"/></g>
<g transform="translate(543,447) scale(4.12)"><rect width="6" height="6"/></g>
<g transform="translate(639,447) scale(4.12)"><rect width="6" height="6"/></g>
<g transform="translate(663,447) scale(4.12)"><rect width="6" height="6"/></g>
<g transform="translate(735,447) scale(4.12)"><rect width="6" height="6"/></g>
<g transform="translate(159,471) scale(4.12)"><rect width="6" height="6"/></g>
<g transform="translate(207,471) scale(4.12)"><rect width="6" height="6"/></g>
<g transform="translate(231,471) scale(4.12)"><rect width="6" height="6"/></g>
<g transform="translate(399,471) scale(4.12)"><rect width="6" height="6"/></g>
<g transform="translate(447,471) scale(4.12)"><rect width="6" height="6"/></g>
<g transform="translate(495,471) scale(4.12)"><rect width="6" height="6"/></g>
<g transform="translate(687,471) scale(4.12)"><rect width="6" height="6"/></g>
<g transform="translate(711,471) scale(4.12)"><rect width="6" height="6"/></g>
<g transform="translate(87,495) scale(4.12)"><rect width="6" height="6"/></g>
<g transform="translate(111,495) scale(4.12)"><rect width="6" height="6"/></g>
<g transform="translate(159,495) scale(4.12)"><rect width="6" height="6"/></g>
<g transform="translate(207,495) scale(4.12)"><rect width="6" height="6"/></g>
<g transform="translate(279,495) scale(4.12)"><rect width="6" height="6"/></g>
<g transform="translate(327,495) scale(4.12)"><rect width="6" height="6"/></g>
<g transform="translate(351,495) scale(4.12)"><rect width="6" height="6"/></g>
<g transform="translate(471,495) scale(4.12)"><rect width="6" height="6"/></g>
<g transform="translate(543,495) scale(4.12)"><rect width="6" height="6"/></g>
<g transform="translate(567,495) scale(4.12)"><rect width="6" height="6"/></g>
<g transform="translate(591,495) scale(4.12)"><rect width="6" height="6"/></g>
<g transform="translate(615,495) scale(4.12)"><rect width="6" height="6"/></g>
<g transform="translate(639,495) scale(4.12)"><rect width="6" height="6"/></g>
<g transform="translate(663,495) scale(4.12)"><rect width="6" height="6"/></g>
<g transform="translate(711,495) scale(4.12)"><rect width="6" height="6"/></g>
<g transform="translate(759,495) scale(4.12)"><rect width="6" height="6"/></g>
<g transform="translate(87,519) scale(4.12)"><rect width="6" height="6"/></g>
<g transform="translate(231,519) scale(4.12)"><rect width="6" height="6"/></g>
<g transform="translate(255,519) scale(4.12)"><rect width="6" height="6"/></g>
<g transform="translate(303,519) scale(4.12)"><rect width="6" height="6"/></g>
<g transform="translate(327,519) scale(4.12)"><rect width="6" height="6"/></g>
<g transform="translate(351,519) scale(4.12)"><rect width="6" height="6"/></g>
<g transform="translate(399,519) scale(4.12)"><rect width="6" height="6"/></g>
<g transform="translate(447,519) scale(4.12)"><rect width="6" height="6"/></g>
<g transform="translate(495,519) scale(4.12)"><rect width="6" height="6"/></g>
<g transform="translate(567,519) scale(4.12)"><rect width="6" height="6"/></g>
<g transform="translate(663,519) scale(4.12)"><rect width="6" height="6"/></g>
<g transform="translate(711,519) scale(4.12)"><rect width="6" height="6"/></g>
<g transform="translate(87,543) scale(4.12)"><rect width="6" height="6"/></g>
<g transform="translate(135,543) scale(4.12)"><rect width="6" height="6"/></g>
<g transform="translate(183,543) scale(4.12)"><rect width="6" height="6"/></g>
<g transform="translate(255,543) scale(4.12)"><rect width="6" height="6"/></g>
<g transform="translate(327,543) scale(4.12)"><rect width="6" height="6"/></g>
<g transform="translate(375,543) scale(4.12)"><rect width="6" height="6"/></g>
<g transform="translate(447,543) scale(4.12)"><rect width="6" height="6"/></g>
<g transform="translate(471,543) scale(4.12)"><rect width="6" height="6"/></g>
<g transform="translate(519,543) scale(4.12)"><rect width="6" height="6"/></g>
<g transform="translate(663,543) scale(4.12)"><rect width="6" height="6"/></g>
<g transform="translate(735,543) scale(4.12)"><rect width="6" height="6"/></g>
<g transform="translate(87,567) scale(4.12)"><rect width="6" height="6"/></g>
<g transform="translate(159,567) scale(4.12)"><rect width="6" height="6"/></g>
<g transform="translate(207,567) scale(4.12)"><rect width="6" height="6"/></g>
<g transform="translate(231,567) scale(4.12)"><rect width="6" height="6"/></g>
<g transform="translate(279,567) scale(4.12)"><rect width="6" height="6"/></g>
<g transform="translate(303,567) scale(4.12)"><rect width="6" height="6"/></g>
<g transform="translate(327,567) scale(4.12)"><rect width="6" height="6"/></g>
<g transform="translate(399,567) scale(4.12)"><rect width="6" height="6"/></g>
<g transform="translate(447,567) scale(4.12)"><rect width="6" height="6"/></g>
<g transform="translate(495,567) scale(4.12)"><rect width="6" height="6"/></g>
<g transform="translate(567,567) scale(4.12)"><rect width="6" height="6"/></g>
<g transform="translate(591,567) scale(4.12)"><rect width="6" height="6"/></g>
<g transform="translate(615,567) scale(4.12)"><rect width="6" height="6"/></g>
<g transform="translate(639,567) scale(4.12)"><rect width="6" height="6"/></g>
<g transform="translate(663,567) scale(4.12)"><rect width="6" height="6"/></g>
<g transform="translate(711,567) scale(4.12)"><rect width="6" height="6"/></g>
<g transform="translate(735,567) scale(4.12)"><rect width="6" height="6"/></g>
<g transform="translate(759,567) scale(4.12)"><rect width="6" height="6"/></g>
<g transform="translate(279,591) scale(4.12)"><rect width="6" height="6"/></g>
<g transform="translate(327,591) scale(4.12)"><rect width="6" height="6"/></g>
<g transform="translate(351,591) scale(4.12)"><rect width="6" height="6"/></g>
<g transform="translate(375,591) scale(4.12)"><rect width="6" height="6"/></g>
<g transform="translate(471,591) scale(4.12)"><rect width="6" height="6"/></g>
<g transform="translate(495,591) scale(4.12)"><rect width="6" height="6"/></g>
<g transform="translate(519,591) scale(4.12)"><rect width="6" height="6"/></g>
<g transform="translate(567,591) scale(4.12)"><rect width="6" height="6"/></g>
<g transform="translate(663,591) scale(4.12)"><rect width="6" height="6"/></g>
<g transform="translate(687,591) scale(4.12)"><rect width="6" height="6"/></g>
<g transform="translate(711,591) scale(4.12)"><rect width="6" height="6"/></g>
<g transform="translate(735,591) scale(4.12)"><rect width="6" height="6"/></g>
<g transform="translate(759,591) scale(4.12)"><rect width="6" height="6"/></g>
<g transform="translate(303,615) scale(4.12)"><rect width="6" height="6"/></g>
<g transform="translate(351,615) scale(4.12)"><rect width="6" height="6"/></g>
<g transform="translate(375,615) scale(4.12)"><rect width="6" height="6"/></g>
<g transform="translate(423,615) scale(4.12)"><rect width="6" height="6"/></g>
<g transform="translate(447,615) scale(4.12)"><rect width="6" height="6"/></g>
<g transform="translate(471,615) scale(4.12)"><rect width="6" height="6"/></g>
<g transform="translate(519,615) scale(4.12)"><rect width="6" height="6"/></g>
<g transform="translate(543,615) scale(4.12)"><rect width="6" height="6"/></g>
<g transform="translate(567,615) scale(4.12)"><rect width="6" height="6"/></g>
<g transform="translate(615,615) scale(4.12)"><rect width="6" height="6"/></g>
<g transform="translate(663,615) scale(4.12)"><rect width="6" height="6"/></g>
<g transform="translate(687,615) scale(4.12)"><rect width="6" height="6"/></g>
<g transform="translate(711,615) scale(4.12)"><rect width="6" height="6"/></g>
<g transform="translate(279,639) scale(4.12)"><rect width="6" height="6"/></g>
<g transform="translate(303,639) scale(4.12)"><rect width="6" height="6"/></g>
<g transform="translate(327,639) scale(4.12)"><rect width="6" height="6"/></g>
<g transform="translate(351,639) scale(4.12)"><rect width="6" height="6"/></g>
<g transform="translate(375,639) scale(4.12)"><rect width="6" height="6"/></g>
<g transform="translate(447,639) scale(4.12)"><rect width="6" height="6"/></g>
<g transform="translate(543,639) scale(4.12)"><rect width="6" height="6"/></g>
<g transform="translate(567,639) scale(4.12)"><rect width="6" height="6"/></g>
<g transform="translate(663,639) scale(4.12)"><rect width="6" height="6"/></g>
<g transform="translate(735,639) scale(4.12)"><rect width="6" height="6"/></g>
<g transform="translate(279,663) scale(4.12)"><rect width="6" height="6"/></g>
<g transform="translate(327,663) scale(4.12)"><rect width="6" height="6"/></g>
<g transform="translate(351,663) scale(4.12)"><rect width="6" height="6"/></g>
<g transform="translate(375,663) scale(4.12)"><rect width="6" height="6"/></g>
<g transform="translate(447,663) scale(4.12)"><rect width="6" height="6"/></g>
<g transform="translate(495,663) scale(4.12)"><rect width="6" height="6"/></g>
<g transform="translate(567,663) scale(4.12)"><rect width="6" height="6"/></g>
<g transform="translate(591,663) scale(4.12)"><rect width="6" height="6"/></g>
<g transform="translate(615,663) scale(4.12)"><rect width="6" height="6"/></g>
<g transform="translate(639,663) scale(4.12)"><rect width="6" height="6"/></g>
<g transform="translate(663,663) scale(4.12)"><rect width="6" height="6"/></g>
<g transform="translate(711,663) scale(4.12)"><rect width="6" height="6"/></g>
<g transform="translate(279,687) scale(4.12)"><rect width="6" height="6"/></g>
<g transform="translate(375,687) scale(4.12)"><rect width="6" height="6"/></g>
<g transform="translate(399,687) scale(4.12)"><rect width="6" height="6"/></g>
<g transform="translate(471,687) scale(4.12)"><rect width="6" height="6"/></g>
<g transform="translate(519,687) scale(4.12)"><rect width="6" height="6"/></g>
<g transform="translate(567,687) scale(4.12)"><rect width="6" height="6"/></g>
<g transform="translate(639,687) scale(4.12)"><rect width="6" height="6"/></g>
<g transform="translate(687,687) scale(4.12)"><rect width="6" height="6"/></g>
<g transform="translate(711,687) scale(4.12)"><rect width="6" height="6"/></g>
<g transform="translate(735,687) scale(4.12)"><rect width="6" height="6"/></g>
<g transform="translate(759,687) scale(4.12)"><rect width="6" height="6"/></g>
<g transform="translate(279,711) scale(4.12)"><rect width="6" height="6"/></g>
<g transform="translate(351,711) scale(4.12)"><rect width="6" height="6"/></g>
<g transform="translate(375,711) scale(4.12)"><rect width="6" height="6"/></g>
<g transform="translate(399,711) scale(4.12)"><rect width="6" height="6"/></g>
<g transform="translate(447,711) scale(4.12)"><rect width="6" height="6"/></g>
<g transform="translate(591,711) scale(4.12)"><rect width="6" height="6"/></g>
<g transform="translate(615,711) scale(4.12)"><rect width="6" height="6"/></g>
<g transform="translate(639,711) scale(4.12)"><rect width="6" height="6"/></g>
<g transform="translate(663,711) scale(4.12)"><rect width="6" height="6"/></g>
<g transform="translate(687,711) scale(4.12)"><rect width="6" height="6"/></g>
<g transform="translate(711,711) scale(4.12)"><rect width="6" height="6"/></g>
<g transform="translate(735,711) scale(4.12)"><rect width="6" height="6"/></g>
<g transform="translate(303,735) scale(4.12)"><rect width="6" height="6"/></g>
<g transform="translate(375,735) scale(4.12)"><rect width="6" height="6"/></g>
<g transform="translate(423,735) scale(4.12)"><rect width="6" height="6"/></g>
<g transform="translate(567,735) scale(4.12)"><rect width="6" height="6"/></g>
<g transform="translate(639,735) scale(4.12)"><rect width="6" height="6"/></g>
<g transform="translate(687,735) scale(4.12)"><rect width="6" height="6"/></g>
<g transform="translate(735,735) scale(4.12)"><rect width="6" height="6"/></g>
<g transform="translate(279,759) scale(4.12)"><rect width="6" height="6"/></g>
<g transform="translate(303,759) scale(4.12)"><rect width="6" height="6"/></g>
<g transform="translate(327,759) scale(4.12)"><rect width="6" height="6"/></g>
<g transform="translate(399,759) scale(4.12)"><rect width="6" height="6"/></g>
<g transform="translate(447,759) scale(4.12)"><rect width="6" height="6"/></g>
<g transform="translate(471,759) scale(4.12)"><rect width="6" height="6"/></g>
<g transform="translate(495,759) scale(4.12)"><rect width="6" height="6"/></g>
<g transform="translate(543,759) scale(4.12)"><rect width="6" height="6"/></g>
<g transform="translate(591,759) scale(4.12)"><rect width="6" height="6"/></g>
<g transform="translate(639,759) scale(4.12)"><rect width="6" height="6"/></g>
<g transform="translate(711,759) scale(4.12)"><rect width="6" height="6"/></g>
<g transform="translate(87,87)"><g transform="scale(12)"><path d="M0,0v14h14V0H0z M12,12H2V2h10V12z"/></g></g>
<g transform="translate(615,87)"><g transform="scale(12)"><path d="M0,0v14h14V0H0z M12,12H2V2h10V12z"/></g></g>
<g transform="translate(87,615)"><g transform="scale(12)"><path d="M0,0v14h14V0H0z M12,12H2V2h10V12z"/></g></g>
<g transform="translate(135,135)"><g transform="scale(12)"><rect width="6" height="6"/></g></g>
<g transform="translate(663,135)"><g transform="scale(12)"><rect width="6" height="6"/></g></g>
<g transform="translate(135,663)"><g transform="scale(12)"><rect width="6" height="6"/></g></g>
</g><g transform="translate(189.6335504886,0) scale(1.2091205211726)"><path fill="#FFFFFF" d="M8.69140625,119.921875l0-45.01953125l-7.763671875,0l0-6.8359375l7.763671875,0l0-5.517578125q0-5.224609375,0.927734375-7.763671875q1.26953125-3.41796875,4.4677734375-5.5419921875t8.9599609375-2.1240234375q3.7109375,0,8.203125,0.87890625l-1.318359375,7.666015625q-2.734375-0.48828125-5.17578125-0.48828125q-4.00390625,0-5.6640625,1.708984375t-1.66015625,6.396484375l0,4.78515625l10.107421875,0l0,6.8359375l-10.107421875,0l0,45.01953125l-8.740234375,0z M69.873046875,103.22265625l9.08203125,1.123046875q-2.1484375,7.958984375-7.958984375,12.353515625t-14.84375,4.39453125q-11.376953125,0-18.0419921875-7.0068359375t-6.6650390625-19.6533203125q0-13.0859375,6.73828125-20.3125t17.48046875-7.2265625q10.400390625,0,16.9921875,7.080078125t6.591796875,19.921875q0,0.78125-0.048828125,2.34375l-38.671875,0q0.48828125,8.544921875,4.833984375,13.0859375t10.83984375,4.541015625q4.833984375,0,8.251953125-2.5390625t5.419921875-8.10546875z M41.015625,89.013671875l28.955078125,0q-0.5859375-6.54296875-3.3203125-9.814453125q-4.19921875-5.078125-10.888671875-5.078125q-6.0546875,0-10.1806640625,4.052734375t-4.5654296875,10.83984375z M125.48828125,103.22265625l9.08203125,1.123046875q-2.1484375,7.958984375-7.958984375,12.353515625t-14.84375,4.39453125q-11.376953125,0-18.0419921875-7.0068359375t-6.6650390625-19.6533203125q0-13.0859375,6.73828125-20.3125t17.48046875-7.2265625q10.400390625,0,16.9921875,7.080078125t6.591796875,19.921875q0,0.78125-0.048828125,2.34375l-38.671875,0q0.48828125,8.544921875,4.833984375,13.0859375t10.83984375,4.541015625q4.833984375,0,8.251953125-2.5390625t5.419921875-8.10546875z M96.630859375,89.013671875l28.955078125,0q-0.5859375-6.54296875-3.3203125-9.814453125q-4.19921875-5.078125-10.888671875-5.078125q-6.0546875,0-10.1806640625,4.052734375t-4.5654296875,10.83984375z M179.248046875,119.921875l0-6.54296875q-4.931640625,7.71484375-14.501953125,7.71484375q-6.201171875,0-11.4013671875-3.41796875t-8.056640625-9.5458984375t-2.8564453125-14.0869140625q0-7.763671875,2.587890625-14.0869140625t7.763671875-9.6923828125t11.572265625-3.369140625q4.6875,0,8.349609375,1.9775390625t5.95703125,5.1513671875l0-25.68359375l8.740234375,0l0,71.58203125l-8.154296875,0z M151.46484375,94.04296875q0,9.9609375,4.19921875,14.892578125t9.912109375,4.931640625q5.76171875,0,9.7900390625-4.7119140625t4.0283203125-14.3798828125q0-10.64453125-4.1015625-15.625t-10.107421875-4.98046875q-5.859375,0-9.7900390625,4.78515625t-3.9306640625,15.087890625z M209.326171875,119.921875l-8.154296875,0l0-71.58203125l8.7890625,0l0,25.537109375q5.56640625-6.982421875,14.208984375-6.982421875q4.78515625,0,9.0576171875,1.9287109375t7.03125,5.419921875t4.3212890625,8.4228515625t1.5625,10.546875q0,13.330078125-6.591796875,20.60546875t-15.8203125,7.275390625q-9.1796875,0-14.404296875-7.666015625l0,6.494140625z M209.228515625,93.603515625q0,9.326171875,2.5390625,13.4765625q4.150390625,6.787109375,11.23046875,6.787109375q5.76171875,0,9.9609375-5.0048828125t4.19921875-14.9169921875q0-10.15625-4.0283203125-14.990234375t-9.7412109375-4.833984375q-5.76171875,0-9.9609375,5.0048828125t-4.19921875,14.4775390625z M290.673828125,113.525390625q-4.8828125,4.150390625-9.3994140625,5.859375t-9.6923828125,1.708984375q-8.544921875,0-13.134765625-4.1748046875t-4.58984375-10.6689453125q0-3.80859375,1.7333984375-6.9580078125t4.541015625-5.0537109375t6.3232421875-2.880859375q2.587890625-0.68359375,7.8125-1.318359375q10.64453125-1.26953125,15.673828125-3.02734375q0.048828125-1.806640625,0.048828125-2.294921875q0-5.37109375-2.490234375-7.568359375q-3.369140625-2.978515625-10.009765625-2.978515625q-6.201171875,0-9.1552734375,2.1728515625t-4.3701171875,7.6904296875l-8.59375-1.171875q1.171875-5.517578125,3.857421875-8.9111328125t7.763671875-5.224609375t11.767578125-1.8310546875q6.640625,0,10.791015625,1.5625t6.103515625,3.9306640625t2.734375,5.9814453125q0.439453125,2.24609375,0.439453125,8.10546875l0,11.71875q0,12.255859375,0.5615234375,15.5029296875t2.2216796875,6.2255859375l-9.1796875,0q-1.3671875-2.734375-1.7578125-6.396484375z M289.94140625,93.896484375q-4.78515625,1.953125-14.35546875,3.3203125q-5.419921875,0.78125-7.666015625,1.7578125t-3.466796875,2.8564453125t-1.220703125,4.1748046875q0,3.515625,2.6611328125,5.859375t7.7880859375,2.34375q5.078125,0,9.033203125-2.2216796875t5.810546875-6.0791015625q1.416015625-2.978515625,1.416015625-8.7890625l0-3.22265625z M346.2890625,100.927734375l8.642578125,1.123046875q-1.416015625,8.935546875-7.2509765625,13.9892578125t-14.3310546875,5.0537109375q-10.64453125,0-17.1142578125-6.9580078125t-6.4697265625-19.9462890625q0-8.3984375,2.783203125-14.697265625t8.4716796875-9.4482421875t12.3779296875-3.1494140625q8.447265625,0,13.818359375,4.2724609375t6.884765625,12.1337890625l-8.544921875,1.318359375q-1.220703125-5.224609375-4.3212890625-7.861328125t-7.4951171875-2.63671875q-6.640625,0-10.791015625,4.7607421875t-4.150390625,15.0634765625q0,10.44921875,4.00390625,15.185546875t10.44921875,4.736328125q5.17578125,0,8.642578125-3.173828125t4.39453125-9.765625z M362.5,119.921875l0-71.58203125l8.7890625,0l0,40.8203125l20.80078125-21.09375l11.376953125,0l-19.82421875,19.23828125l21.826171875,32.6171875l-10.83984375,0l-17.138671875-26.513671875l-6.201171875,5.95703125l0,20.556640625l-8.7890625,0z"/></g></svg>
